<?xml version="1.0" encoding="UTF-8"?>
<svg version="1.1" xmlns="http://www.w3.org/2000/svg" width="300" height="300">
<path d="M0 0 C99 0 198 0 300 0 C300 99 300 198 300 300 C201 300 102 300 0 300 C0 201 0 102 0 0 Z " fill="#FF6600" transform="translate(0,0)"/>
<path d="M0 0 C2.54878922 1.17244304 4.06297378 2.06297378 6 4 C6.33 2.68 6.66 1.36 7 0 C10.3 0 13.6 0 17 0 C17.12405345 6.54696828 17.21455514 13.09324502 17.2746582 19.64111328 C17.29972607 21.86616949 17.33378944 24.09114398 17.37719727 26.31591797 C17.43818809 29.52331765 17.46628784 32.72962407 17.48828125 35.9375 C17.51408768 36.92427734 17.5398941 37.91105469 17.56648254 38.92773438 C17.56908661 45.41193464 16.46235628 50.11788382 12 55 C5.33554094 59.64949873 -2.09639657 59.9966713 -10 59 C-14.11484061 57.74179601 -17.01168751 56.01919726 -20 52.9375 C-21 51 -21 51 -21 48 C-17.3131975 46.77106583 -13.83979564 46.52002555 -10 47 C-9.360625 47.515625 -8.72125 48.03125 -8.0625 48.5625 C-5.03375881 50.67344083 -2.5834238 50.007485 0.9765625 49.6171875 C3.37920643 49.11804356 3.37920643 49.11804356 5 46 C5.07905064 43.66800612 5.08798769 41.33167378 5 39 C4.46117187 39.48597656 3.92234375 39.97195313 3.3671875 40.47265625 C-0.99267047 43.28569992 -6.00025352 42.58386301 -11 42 C-15.59123595 39.99655159 -18.58716034 36.90175336 -21.0859375 32.60546875 C-23.56611214 25.53591112 -23.40978183 15.5873172 -20.15625 8.71875 C-14.92810954 0.94718986 -9.28479577 -1.64191224 0 0 Z " fill="#FFF9F6" transform="translate(204,232)"/>
<path d="M0 0 C4.64016092 2.75263784 8.49161249 7.28080766 10.203125 12.42578125 C11.57499251 20.34384264 11.08391045 27.70466382 6.5625 34.5 C2.56277085 38.91676252 -1.66460918 42.08078991 -7.6875 42.75 C-13.8149093 43.04889801 -18.44486848 42.15340633 -23.4375 38.5 C-29.20953355 33.20255587 -31.44674897 28.06832643 -31.875 20.25 C-31.73683978 13.48936012 -29.47366448 7.80182887 -24.875 2.80078125 C-18.3355069 -2.90492648 -7.88244025 -3.46766267 0 0 Z " fill="#FFFAF8" transform="translate(46.4375,233.5)"/>
<path d="M0 0 C1.28648438 -0.01675781 2.57296875 -0.03351563 3.8984375 -0.05078125 C8.99711115 0.44625926 12.11345274 1.83323755 15.77392578 5.41552734 C18.14770554 9.13054589 18.13454961 12.19561431 18.015625 16.45703125 C18.00996521 17.22681808 18.00430542 17.99660492 17.99847412 18.78971863 C17.97617872 21.23545943 17.92599875 23.6797061 17.875 26.125 C17.854926 27.78839022 17.8366768 29.45180353 17.8203125 31.11523438 C17.77633684 35.18156058 17.70735979 39.24677744 17.625 43.3125 C16.00081255 43.39340971 14.37548255 43.45164995 12.75 43.5 C11.84507813 43.53480469 10.94015625 43.56960938 10.0078125 43.60546875 C8.82832031 43.46044922 8.82832031 43.46044922 7.625 43.3125 C6.965 42.3225 6.305 41.3325 5.625 40.3125 C4.696875 40.8075 3.76875 41.3025 2.8125 41.8125 C-2.13441641 43.9038793 -7.09655445 44.17768882 -12.375 43.3125 C-16.04209267 41.44678618 -18.05482475 39.27302575 -19.375 35.3125 C-20.01654099 30.50094256 -19.92375052 27.25068638 -17.4375 23 C-12.93516933 18.36903131 -5.65534304 15.50777112 0.765625 15.21484375 C1.46171875 15.22644531 2.1578125 15.23804688 2.875 15.25 C4.73125 15.2809375 4.73125 15.2809375 6.625 15.3125 C5.965 13.3325 5.305 11.3525 4.625 9.3125 C3.04253293 9.23096067 1.45883727 9.17306443 -0.125 9.125 C-1.00671875 9.09019531 -1.8884375 9.05539063 -2.796875 9.01953125 C-5.84591745 9.36601335 -6.99678618 10.46664785 -9.375 12.3125 C-13.59495552 11.4685089 -14.95123483 10.94814775 -17.375 7.3125 C-11.4155911 2.16573777 -8.1709342 0.02446387 0 0 Z " fill="#FFF9F5" transform="translate(110.375,231.6875)"/>
<path d="M0 0 C5.9977711 2.79206586 9.08998644 7.17997288 12 13 C12 16.3 12 19.6 12 23 C2.76 23 -6.48 23 -16 23 C-14.12555779 31.69302969 -14.12555779 31.69302969 -10 34 C-4.90883056 34.47140458 -2.17500872 33.89931161 2 31 C2.99 30.67 3.98 30.34 5 30 C8.1875 31.9375 8.1875 31.9375 11 34 C9.49235345 38.22141034 6.78707131 39.80349864 3 42 C-2.99052926 43.95794355 -10.54573924 44.2092624 -16.48828125 42.12890625 C-21.8222115 39.06516101 -24.75968239 35.02062687 -26.58203125 29.11328125 C-27.99872192 21.95038732 -27.66788254 14.41514117 -24 8 C-17.068316 -0.20857315 -10.37139065 -1.09685683 0 0 Z " fill="#FFFBF8" transform="translate(254,232)"/>
<path d="M0 0 C3.79594561 1.581644 5.93958937 3.46044054 8 7 C8.25658449 9.76265164 8.35025594 12.29075559 8.29296875 15.046875 C8.28872391 15.81807678 8.28447906 16.58927856 8.28010559 17.3838501 C8.26335383 19.83959315 8.22570939 22.29450629 8.1875 24.75 C8.17244857 26.41795687 8.15876097 28.08592665 8.14648438 29.75390625 C8.11346194 33.83625578 8.06170484 37.91798732 8 42 C4.37 42 0.74 42 -3 42 C-3.02505615 41.0713916 -3.0501123 40.1427832 -3.07592773 39.18603516 C-3.17097932 35.74564196 -3.27021707 32.30542287 -3.37231445 28.86523438 C-3.41566589 27.37537359 -3.45734084 25.88546305 -3.49731445 24.39550781 C-3.55501215 22.25570673 -3.61870755 20.11615615 -3.68359375 17.9765625 C-3.72025146 16.68830566 -3.75690918 15.40004883 -3.79467773 14.07275391 C-3.79530675 11.0872318 -3.79530675 11.0872318 -5 9 C-9.98429063 8.70680643 -13.09143716 8.75170095 -17 12 C-17.76719382 15.16487474 -17.76719382 15.16487474 -17.671875 18.8203125 C-17.68462463 19.47957733 -17.69737427 20.13884216 -17.71051025 20.81808472 C-17.74681759 22.92082764 -17.74951931 25.02197109 -17.75 27.125 C-17.77158991 29.23457376 -17.80000529 31.34390367 -17.83233643 33.45333862 C-17.8582463 35.36215908 -17.86653626 37.27119417 -17.87402344 39.18017578 C-18 42 -18 42 -19 43 C-20.66429051 43.09823937 -22.33281931 43.12973631 -24 43.125 C-25.36125 43.12886719 -25.36125 43.12886719 -26.75 43.1328125 C-29 43 -29 43 -30 42 C-30.10110353 39.0546443 -30.13969279 36.1332244 -30.1328125 33.1875 C-30.13376923 32.30344482 -30.13472595 31.41938965 -30.13571167 30.50854492 C-30.13639351 28.63557871 -30.13453893 26.76261014 -30.13037109 24.88964844 C-30.12502289 22.01231612 -30.13031593 19.13513992 -30.13671875 16.2578125 C-30.13605797 14.44270799 -30.13477681 12.62760357 -30.1328125 10.8125 C-30.13483673 9.94584717 -30.13686096 9.07919434 -30.13894653 8.1862793 C-30.11495009 2.11495009 -30.11495009 2.11495009 -29 1 C-27.48071962 0.92820036 -25.95832518 0.91607993 -24.4375 0.9375 C-23.61121094 0.94652344 -22.78492188 0.95554688 -21.93359375 0.96484375 C-21.29550781 0.97644531 -20.65742188 0.98804688 -20 1 C-20 2.32 -20 3.64 -20 5 C-19.47792969 4.6390625 -18.95585937 4.278125 -18.41796875 3.90625 C-12.27047153 0.03041988 -7.22081738 -1.05782675 0 0 Z " fill="#FFF7F2" transform="translate(166,232)"/>
<path d="M0 0 C3.63 0 7.26 0 11 0 C11.33 1.32 11.66 2.64 12 4 C13.299375 3.01 13.299375 3.01 14.625 2 C18.21423463 -0.12695385 19.92694798 -0.38790972 24 0 C24 3.3 24 6.6 24 10 C20.37 10.99 16.74 11.98 13 13 C12.67 22.9 12.34 32.8 12 43 C8.04 43 4.08 43 0 43 C0 28.81 0 14.62 0 0 Z " fill="#FFF4ED" transform="translate(64,232)"/>
<path d="M0 0 C3.15785226 0.87718118 3.8812033 1.82604769 5.75 4.5625 C7.79025159 10.17319187 7.81948329 14.85373425 5.6875 20.4375 C4 23 4 23 1 25 C-5.99656881 25.78993519 -5.99656881 25.78993519 -9.9375 22.6875 C-13.48785388 18.06128131 -13.54715021 13.62508817 -13 8 C-10.32470378 0.99327181 -7.39496814 -0.51894513 0 0 Z " fill="#FF6B08" transform="translate(39,241)"/>
<path d="M0 0 C3.37519555 0.25865985 4.19058125 0.78356094 7.0625 2.9375 C10.34126664 7.58980402 9.75785544 13.28000181 9.0625 18.6875 C7 24.21875 7 24.21875 4.0625 25.6875 C-3.25194368 26.15190912 -3.25194368 26.15190912 -5.875 24.375 C-8.21758533 20.6544233 -8.16391092 17.09882975 -8.25 12.8125 C-8.28738281 11.59820312 -8.32476562 10.38390625 -8.36328125 9.1328125 C-7.6568755 3.41675861 -5.66410343 0.98897044 0 0 Z " fill="#FF6804" transform="translate(200.9375,239.3125)"/>
<path d="M0 0 C0.35038277 3.40001059 0.50469228 6.61059287 0 10 C-3.22175577 13.30033518 -5.18405919 13.91840592 -9.75 14.375 C-13 14 -13 14 -15 12 C-15.4375 9.125 -15.4375 9.125 -15 6 C-10.75709497 1.50751232 -6.07936966 0 0 0 Z " fill="#FF6B09" transform="translate(117,253)"/>
<path d="M0 0 C2.475 0.495 2.475 0.495 5 1 C6.59660706 3.88909849 7 5.69058796 7 9 C7.66 9 8.32 9 9 9 C9.12375 8.071875 9.2475 7.14375 9.375 6.1875 C10 3 10 3 12 0 C13.32 0 14.64 0 16 0 C16 4.62 16 9.24 16 14 C15.01 14 14.02 14 13 14 C12.67 11.36 12.34 8.72 12 6 C11.01 8.64 10.02 11.28 9 14 C8.34 14 7.68 14 7 14 C6.01 11.69 5.02 9.38 4 7 C3.67 9.31 3.34 11.62 3 14 C2.01 14 1.02 14 0 14 C0 9.38 0 4.76 0 0 Z " fill="#FFD6BA" transform="translate(273,217)"/>
<path d="M0 0 C2.875 2.25 2.875 2.25 5 5 C5 6.32 5 7.64 5 9 C-0.28 9 -5.56 9 -11 9 C-10 3 -10 3 -8.3125 1.125 C-5.21507874 -0.38185358 -3.40864082 -0.55651279 0 0 Z " fill="#FF6B08" transform="translate(250,239)"/>
<path d="M0 0 C3.96 0 7.92 0 12 0 C12 0.66 12 1.32 12 2 C10.35 2 8.7 2 7 2 C7 5.96 7 9.92 7 14 C6.34 14 5.68 14 5 14 C5 10.04 5 6.08 5 2 C3.35 2 1.7 2 0 2 C0 1.34 0 0.68 0 0 Z " fill="#FFEEE2" transform="translate(259,217)"/>
<path d="M0 0 C1.32 0.33 2.64 0.66 4 1 C3.67 2.32 3.34 3.64 3 5 C2.67 4.67 2.34 4.34 2 4 C1.67 6.97 1.34 9.94 1 13 C0.67 13 0.34 13 0 13 C0 8.71 0 4.42 0 0 Z " fill="#FFF9F6" transform="translate(274,217)"/>
<path d="M0 0 C0.99 0 1.98 0 3 0 C3 4.29 3 8.58 3 13 C2.67 13 2.34 13 2 13 C1.67 9.7 1.34 6.4 1 3 C0.34 3.99 -0.32 4.98 -1 6 C-1.042721 4.33388095 -1.04063832 2.66617115 -1 1 C-0.67 0.67 -0.34 0.34 0 0 Z " fill="#FFFBF9" transform="translate(285,217)"/>
</svg>
